<svg width="44" height="40" viewBox="0 0 44 40" fill="none" xmlns="http://www.w3.org/2000/svg">
<path d="M40.5625 0.4375H3.4375C2.54239 0.4375 1.68395 0.793079 1.05101 1.42601C0.418078 2.05895 0.0624992 2.91739 0.0624992 3.8125V37.5625C0.0607809 37.8505 0.133718 38.134 0.274197 38.3854C0.414677 38.6367 0.617904 38.8474 0.864061 38.9969C1.10824 39.1504 1.38768 39.2387 1.67572 39.2535C1.96376 39.2683 2.25077 39.209 2.50937 39.0813L8.5 36.0648L14.4906 39.0813C14.7275 39.1953 14.9871 39.2545 15.25 39.2545C15.5129 39.2545 15.7725 39.1953 16.0094 39.0813L22 36.0648L27.9906 39.0813C28.2283 39.1924 28.4876 39.25 28.75 39.25C29.0124 39.25 29.2716 39.1924 29.5094 39.0813L35.5 36.0648L41.4906 39.0813C41.7492 39.209 42.0362 39.2683 42.3243 39.2535C42.6123 39.2387 42.8918 39.1504 43.1359 38.9969C43.3821 38.8474 43.5853 38.6367 43.7258 38.3854C43.8663 38.134 43.9392 37.8505 43.9375 37.5625V3.8125C43.9375 2.91739 43.5819 2.05895 42.949 1.42601C42.316 0.793079 41.4576 0.4375 40.5625 0.4375ZM40.5625 34.8414L36.2594 32.6688C36.0225 32.5547 35.7629 32.4955 35.5 32.4955C35.2371 32.4955 34.9775 32.5547 34.7406 32.6688L28.75 35.6852L22.7594 32.6688C22.5216 32.5576 22.2624 32.5 22 32.5C21.7376 32.5 21.4783 32.5576 21.2406 32.6688L15.25 35.6852L9.25937 32.6688C9.02247 32.5547 8.76292 32.4955 8.5 32.4955C8.23708 32.4955 7.97753 32.5547 7.74062 32.6688L3.4375 34.8414V3.8125H40.5625V34.8414ZM9.42812 27.2688C9.83228 27.4617 10.2955 27.4904 10.7204 27.3488C11.1453 27.2072 11.4987 26.9063 11.7062 26.5094L12.9086 24.0625H20.9664L22.1687 26.5094C22.3122 26.7887 22.5298 27.0231 22.7977 27.1868C23.0656 27.3506 23.3735 27.4373 23.6875 27.4375C23.9493 27.4319 24.2074 27.3746 24.4469 27.2688C24.8438 27.0612 25.1447 26.7078 25.2863 26.2829C25.4279 25.8581 25.3992 25.3948 25.2062 24.9906L18.4562 11.4906C18.3125 11.2117 18.0948 10.9778 17.8269 10.8145C17.559 10.6512 17.2513 10.5648 16.9375 10.5648C16.6237 10.5648 16.316 10.6512 16.0481 10.8145C15.7802 10.9778 15.5625 11.2117 15.4187 11.4906L8.66875 24.9906C8.47576 25.3948 8.44705 25.8581 8.58869 26.2829C8.73032 26.7078 9.03123 27.0612 9.42812 27.2688ZM16.9375 16.0258L19.2789 20.6875H14.5961L16.9375 16.0258ZM25.375 19C25.375 18.5525 25.5528 18.1232 25.8693 17.8068C26.1857 17.4903 26.6149 17.3125 27.0625 17.3125H29.5937V14.7813C29.5937 14.3337 29.7715 13.9045 30.088 13.588C30.4045 13.2715 30.8337 13.0938 31.2812 13.0938C31.7288 13.0938 32.158 13.2715 32.4745 13.588C32.791 13.9045 32.9687 14.3337 32.9687 14.7813V17.3125H35.5C35.9475 17.3125 36.3768 17.4903 36.6932 17.8068C37.0097 18.1232 37.1875 18.5525 37.1875 19C37.1875 19.4476 37.0097 19.8768 36.6932 20.1932C36.3768 20.5097 35.9475 20.6875 35.5 20.6875H32.9687V23.2188C32.9687 23.6663 32.791 24.0955 32.4745 24.412C32.158 24.7285 31.7288 24.9063 31.2812 24.9063C30.8337 24.9063 30.4045 24.7285 30.088 24.412C29.7715 24.0955 29.5937 23.6663 29.5937 23.2188V20.6875H27.0625C26.6149 20.6875 26.1857 20.5097 25.8693 20.1932C25.5528 19.8768 25.375 19.4476 25.375 19Z" fill="#1FA0C9"/>
</svg>
