<svg width="17" height="17" viewBox="0 0 17 17" fill="none" xmlns="http://www.w3.org/2000/svg">
<path d="M10.2918 6.70762L6.70762 10.2918C6.2472 9.83137 5.96387 9.20095 5.96387 8.4997C5.96387 7.0972 7.0972 5.96387 8.4997 5.96387C9.20095 5.96387 9.83137 6.2472 10.2918 6.70762Z" stroke="#969696" stroke-width="1.5" stroke-linecap="round" stroke-linejoin="round"/>
<path d="M12.6219 4.08709C11.3823 3.15209 9.96565 2.64209 8.4994 2.64209C5.99898 2.64209 3.66857 4.11542 2.04648 6.66542C1.40898 7.66417 1.40898 9.34292 2.04648 10.3417C2.60607 11.22 3.25773 11.9779 3.96607 12.5871" stroke="#969696" stroke-width="1.5" stroke-linecap="round" stroke-linejoin="round"/>
<path d="M5.96387 13.8339C6.77137 14.1739 7.62845 14.358 8.4997 14.358C11.0001 14.358 13.3305 12.8847 14.9526 10.3347C15.5901 9.33594 15.5901 7.65719 14.9526 6.65844C14.7189 6.2901 14.4639 5.94302 14.2018 5.61719" stroke="#969696" stroke-width="1.5" stroke-linecap="round" stroke-linejoin="round"/>
<path d="M10.9868 8.99609C10.8026 9.99484 9.98801 10.8094 8.98926 10.9936" stroke="#969696" stroke-width="1.5" stroke-linecap="round" stroke-linejoin="round"/>
<path d="M6.70727 10.2922L1.41602 15.5835" stroke="#969696" stroke-width="1.5" stroke-linecap="round" stroke-linejoin="round"/>
<path d="M15.5828 1.41699L10.2915 6.70824" stroke="#969696" stroke-width="1.5" stroke-linecap="round" stroke-linejoin="round"/>
</svg>
